HIERARCHY
ROOT mixamorig:Hips
{
	OFFSET -0.000008 104.274872 1.554316
	CHANNELS 6 Xposition Yposition Zposition Xrotation Yrotation Zrotation
	JOINT mixamorig:Spine
	{
		OFFSET -0.000005 10.181595 0.131519
		CHANNELS 6 Xposition Yposition Zposition Xrotation Yrotation Zrotation
		JOINT mixamorig:Spine1
		{
			OFFSET -0.000000 9.893959 -1.470707
			CHANNELS 6 Xposition Yposition Zposition Xrotation Yrotation Zrotation
			JOINT mixamorig:Spine2
			{
				OFFSET -0.000000 9.220757 -1.370641
				CHANNELS 6 Xposition Yposition Zposition Xrotation Yrotation Zrotation
				JOINT mixamorig:Neck
				{
					OFFSET 0.000001 16.740417 -2.049036
					CHANNELS 6 Xposition Yposition Zposition Xrotation Yrotation Zrotation
					JOINT mixamorig:Head
					{
						OFFSET 0.000000 9.617874 1.685006
						CHANNELS 6 Xposition Yposition Zposition Xrotation Yrotation Zrotation
						JOINT mixamorig:HeadTop_End
						{
							OFFSET 0.000002 22.037354 7.501101
							CHANNELS 6 Xposition Yposition Zposition Xrotation Yrotation Zrotation
							End Site
							{
								OFFSET 0.000168 2310.654297 -282.823242
							}
						}
					}
				}
				JOINT mixamorig:RightShoulder
				{
					OFFSET -4.569970 11.014908 -2.160885
					CHANNELS 6 Xposition Yposition Zposition Xrotation Yrotation Zrotation
					JOINT mixamorig:RightArm
					{
						OFFSET -10.592851 -0.524811 -2.232101
						CHANNELS 6 Xposition Yposition Zposition Xrotation Yrotation Zrotation
						JOINT mixamorig:RightForeArm
						{
							OFFSET -27.841511 0.000031 -0.000004
							CHANNELS 6 Xposition Yposition Zposition Xrotation Yrotation Zrotation
							JOINT mixamorig:RightHand
							{
								OFFSET -28.328831 -0.000015 0.000015
								CHANNELS 6 Xposition Yposition Zposition Xrotation Yrotation Zrotation
								JOINT mixamorig:RightHandThumb1
								{
									OFFSET -2.464806 -1.573990 2.681852
									CHANNELS 6 Xposition Yposition Zposition Xrotation Yrotation Zrotation
									JOINT mixamorig:RightHandThumb2
									{
										OFFSET -3.215179 -1.872803 1.924282
										CHANNELS 6 Xposition Yposition Zposition Xrotation Yrotation Zrotation
										JOINT mixamorig:RightHandThumb3
										{
											OFFSET -2.654831 -1.527969 1.512609
											CHANNELS 6 Xposition Yposition Zposition Xrotation Yrotation Zrotation
											JOINT mixamorig:RightHandThumb4
											{
												OFFSET -2.018814 -1.152008 1.108052
												CHANNELS 6 Xposition Yposition Zposition Xrotation Yrotation Zrotation
												End Site
												{
													OFFSET -188.809540 -114.533607 132.431396
												}
											}
										}
									}
								}
								JOINT mixamorig:RightHandIndex1
								{
									OFFSET -9.108284 -0.517868 2.259835
									CHANNELS 6 Xposition Yposition Zposition Xrotation Yrotation Zrotation
									JOINT mixamorig:RightHandIndex2
									{
										OFFSET -3.699989 0.000000 0.001215
										CHANNELS 6 Xposition Yposition Zposition Xrotation Yrotation Zrotation
										JOINT mixamorig:RightHandIndex3
										{
											OFFSET -2.850006 0.000031 -0.000522
											CHANNELS 6 Xposition Yposition Zposition Xrotation Yrotation Zrotation
											JOINT mixamorig:RightHandIndex4
											{
												OFFSET -2.772186 -0.000015 -0.000020
												CHANNELS 6 Xposition Yposition Zposition Xrotation Yrotation Zrotation
												End Site
												{
													OFFSET -277.218445 0.000000 -0.050231
												}
											}
										}
									}
								}
								JOINT mixamorig:RightHandMiddle1
								{
									OFFSET -9.532516 -0.000031 -0.000023
									CHANNELS 6 Xposition Yposition Zposition Xrotation Yrotation Zrotation
									JOINT mixamorig:RightHandMiddle2
									{
										OFFSET -3.700005 -0.000015 0.003713
										CHANNELS 6 Xposition Yposition Zposition Xrotation Yrotation Zrotation
										JOINT mixamorig:RightHandMiddle3
										{
											OFFSET -2.949974 0.000015 -0.002054
											CHANNELS 6 Xposition Yposition Zposition Xrotation Yrotation Zrotation
											JOINT mixamorig:RightHandMiddle4
											{
												OFFSET -2.946640 0.000000 -0.000156
												CHANNELS 6 Xposition Yposition Zposition Xrotation Yrotation Zrotation
												End Site
												{
													OFFSET -294.664337 0.000000 -0.113670
												}
											}
										}
									}
								}
								JOINT mixamorig:RightHandRing1
								{
									OFFSET -9.103600 -0.043076 -1.865134
									CHANNELS 6 Xposition Yposition Zposition Xrotation Yrotation Zrotation
									JOINT mixamorig:RightHandRing2
									{
										OFFSET -3.379288 0.000000 -0.001055
										CHANNELS 6 Xposition Yposition Zposition Xrotation Yrotation Zrotation
										JOINT mixamorig:RightHandRing3
										{
											OFFSET -2.889687 -0.000015 0.000379
											CHANNELS 6 Xposition Yposition Zposition Xrotation Yrotation Zrotation
											JOINT mixamorig:RightHandRing4
											{
												OFFSET -2.638809 -0.000015 0.000941
												CHANNELS 6 Xposition Yposition Zposition Xrotation Yrotation Zrotation
												End Site
												{
													OFFSET -263.880371 0.000000 0.516020
												}
											}
										}
									}
								}
								JOINT mixamorig:RightHandPinky1
								{
									OFFSET -8.076683 -0.486710 -3.806280
									CHANNELS 6 Xposition Yposition Zposition Xrotation Yrotation Zrotation
									JOINT mixamorig:RightHandPinky2
									{
										OFFSET -3.600014 -0.000015 -0.003747
										CHANNELS 6 Xposition Yposition Zposition Xrotation Yrotation Zrotation
										JOINT mixamorig:RightHandPinky3
										{
											OFFSET -2.099983 0.000000 -0.005739
											CHANNELS 6 Xposition Yposition Zposition Xrotation Yrotation Zrotation
											JOINT mixamorig:RightHandPinky4
											{
												OFFSET -2.115768 -0.000031 -0.003680
												CHANNELS 6 Xposition Yposition Zposition Xrotation Yrotation Zrotation
												End Site
												{
													OFFSET -211.577087 0.000000 -0.350686
												}
											}
										}
									}
								}
							}
						}
					}
				}
				JOINT mixamorig:LeftShoulder
				{
					OFFSET 4.570447 11.014725 -2.160855
					CHANNELS 6 Xposition Yposition Zposition Xrotation Yrotation Zrotation
					JOINT mixamorig:LeftArm
					{
						OFFSET 10.592371 -0.524597 -2.232119
						CHANNELS 6 Xposition Yposition Zposition Xrotation Yrotation Zrotation
						JOINT mixamorig:LeftForeArm
						{
							OFFSET 27.841532 -0.000031 0.000026
							CHANNELS 6 Xposition Yposition Zposition Xrotation Yrotation Zrotation
							JOINT mixamorig:LeftHand
							{
								OFFSET 28.328846 -0.000061 0.000022
								CHANNELS 6 Xposition Yposition Zposition Xrotation Yrotation Zrotation
								JOINT mixamorig:LeftHandThumb1
								{
									OFFSET 2.466141 -1.576172 2.681732
									CHANNELS 6 Xposition Yposition Zposition Xrotation Yrotation Zrotation
									JOINT mixamorig:LeftHandThumb2
									{
										OFFSET 3.217812 -1.872070 1.916482
										CHANNELS 6 Xposition Yposition Zposition Xrotation Yrotation Zrotation
										JOINT mixamorig:LeftHandThumb3
										{
											OFFSET 2.656029 -1.528778 1.514513
											CHANNELS 6 Xposition Yposition Zposition Xrotation Yrotation Zrotation
											JOINT mixamorig:LeftHandThumb4
											{
												OFFSET 2.020889 -1.154053 1.115139
												CHANNELS 6 Xposition Yposition Zposition Xrotation Yrotation Zrotation
												End Site
												{
													OFFSET 190.885437 -115.081749 130.048782
												}
											}
										}
									}
								}
								JOINT mixamorig:LeftHandIndex1
								{
									OFFSET 9.109314 -0.518021 2.259871
									CHANNELS 6 Xposition Yposition Zposition Xrotation Yrotation Zrotation
									JOINT mixamorig:LeftHandIndex2
									{
										OFFSET 3.699989 0.000000 -0.000322
										CHANNELS 6 Xposition Yposition Zposition Xrotation Yrotation Zrotation
										JOINT mixamorig:LeftHandIndex3
										{
											OFFSET 2.850006 0.000000 0.000352
											CHANNELS 6 Xposition Yposition Zposition Xrotation Yrotation Zrotation
											JOINT mixamorig:LeftHandIndex4
											{
												OFFSET 2.774864 -0.000031 -0.000027
												CHANNELS 6 Xposition Yposition Zposition Xrotation Yrotation Zrotation
												End Site
												{
													OFFSET 277.486267 0.000000 -0.009857
												}
											}
										}
									}
								}
								JOINT mixamorig:LeftHandMiddle1
								{
									OFFSET 9.533394 0.000061 0.000044
									CHANNELS 6 Xposition Yposition Zposition Xrotation Yrotation Zrotation
									JOINT mixamorig:LeftHandMiddle2
									{
										OFFSET 3.699989 -0.000015 -0.000231
										CHANNELS 6 Xposition Yposition Zposition Xrotation Yrotation Zrotation
										JOINT mixamorig:LeftHandMiddle3
										{
											OFFSET 2.949997 -0.000015 -0.000059
											CHANNELS 6 Xposition Yposition Zposition Xrotation Yrotation Zrotation
											JOINT mixamorig:LeftHandMiddle4
											{
												OFFSET 2.952896 0.000031 0.000063
												CHANNELS 6 Xposition Yposition Zposition Xrotation Yrotation Zrotation
												End Site
												{
													OFFSET 295.289337 0.000000 0.022810
												}
											}
										}
									}
								}
								JOINT mixamorig:LeftHandRing1
								{
									OFFSET 9.104523 -0.042999 -1.865074
									CHANNELS 6 Xposition Yposition Zposition Xrotation Yrotation Zrotation
									JOINT mixamorig:LeftHandRing2
									{
										OFFSET 3.150009 -0.000031 0.000043
										CHANNELS 6 Xposition Yposition Zposition Xrotation Yrotation Zrotation
										JOINT mixamorig:LeftHandRing3
										{
											OFFSET 2.949982 -0.000015 0.000040
											CHANNELS 6 Xposition Yposition Zposition Xrotation Yrotation Zrotation
											JOINT mixamorig:LeftHandRing4
											{
												OFFSET 2.644348 0.000000 0.000057
												CHANNELS 6 Xposition Yposition Zposition Xrotation Yrotation Zrotation
												End Site
												{
													OFFSET 264.434631 0.000000 0.012105
												}
											}
										}
									}
								}
								JOINT mixamorig:LeftHandPinky1
								{
									OFFSET 8.077789 -0.486847 -3.806259
									CHANNELS 6 Xposition Yposition Zposition Xrotation Yrotation Zrotation
									JOINT mixamorig:LeftHandPinky2
									{
										OFFSET 3.599953 0.000031 0.014727
										CHANNELS 6 Xposition Yposition Zposition Xrotation Yrotation Zrotation
										JOINT mixamorig:LeftHandPinky3
										{
											OFFSET 2.100021 0.000015 0.007705
											CHANNELS 6 Xposition Yposition Zposition Xrotation Yrotation Zrotation
											JOINT mixamorig:LeftHandPinky4
											{
												OFFSET 2.125504 0.000031 0.007517
												CHANNELS 6 Xposition Yposition Zposition Xrotation Yrotation Zrotation
												End Site
												{
													OFFSET 212.550781 0.000000 0.625752
												}
											}
										}
									}
								}
							}
						}
					}
				}
			}
		}
	}
	JOINT mixamorig:RightUpLeg
	{
		OFFSET -8.207787 -6.751648 -1.599560
		CHANNELS 6 Xposition Yposition Zposition Xrotation Yrotation Zrotation
		JOINT mixamorig:RightLeg
		{
			OFFSET -0.000002 -44.370117 0.345942
			CHANNELS 6 Xposition Yposition Zposition Xrotation Yrotation Zrotation
			JOINT mixamorig:RightFoot
			{
				OFFSET 0.000003 -44.423679 -3.043532
				CHANNELS 6 Xposition Yposition Zposition Xrotation Yrotation Zrotation
				JOINT mixamorig:RightToeBase
				{
					OFFSET -0.000002 -8.728671 10.710558
					CHANNELS 6 Xposition Yposition Zposition Xrotation Yrotation Zrotation
					JOINT mixamorig:RightToe_End
					{
						OFFSET -0.000001 -0.000679 9.278119
						CHANNELS 6 Xposition Yposition Zposition Xrotation Yrotation Zrotation
						End Site
						{
							OFFSET 0.000000 -0.067690 927.812134
						}
					}
				}
			}
		}
	}
	JOINT mixamorig:LeftUpLeg
	{
		OFFSET 8.207793 -6.751686 -1.599556
		CHANNELS 6 Xposition Yposition Zposition Xrotation Yrotation Zrotation
		JOINT mixamorig:LeftLeg
		{
			OFFSET -0.000004 -44.370014 0.346954
			CHANNELS 6 Xposition Yposition Zposition Xrotation Yrotation Zrotation
			JOINT mixamorig:LeftFoot
			{
				OFFSET -0.000001 -44.423672 -3.044401
				CHANNELS 6 Xposition Yposition Zposition Xrotation Yrotation Zrotation
				JOINT mixamorig:LeftToeBase
				{
					OFFSET -0.000002 -8.728669 10.710558
					CHANNELS 6 Xposition Yposition Zposition Xrotation Yrotation Zrotation
					JOINT mixamorig:LeftToe_End
					{
						OFFSET -0.000003 -0.000679 9.278133
						CHANNELS 6 Xposition Yposition Zposition Xrotation Yrotation Zrotation
						End Site
						{
							OFFSET 0.000000 -0.068021 927.813477
						}
					}
				}
			}
		}
	}
}
MOTION
Frames: 3
Frame Time: 0.033333
0.000006 104.270477 1.554256 0.000010 0.000003 -0.000113 -0.000005 10.181587 0.131522 0.000001 -0.000003 0.000084 -0.000000 9.893967 -1.470711 0.000001 0.000000 -0.000000 -0.000000 9.220802 -1.370642 0.000000 -0.000000 -0.000000 0.000001 16.740433 -2.049030 0.000000 -0.000000 -0.000000 0.000000 9.617859 1.685014 0.000000 0.000000 0.000000 0.000002 22.037384 7.501101 0.000000 -0.000000 0.000000 -4.569968 11.014880 -2.160881 0.000008 0.000001 -0.000038 -10.592808 -0.524841 -2.231767 68.580488 60.276242 -43.196497 -27.841475 0.000007 0.000591 212.820635 74.912791 -222.055570 -28.328829 0.000020 0.000020 -0.000324 -0.000043 0.000007 -2.464821 -1.574167 2.682024 117.818373 -182.049144 163.593180 -3.215054 -1.873058 1.924536 89.946864 202.009265 147.845004 -2.654641 -1.528294 1.512970 63.189399 213.065292 -233.519141 -2.018823 -1.152015 1.108070 -0.000005 0.000001 0.000004 -9.108208 -0.517743 2.260427 202.978073 14.434404 -296.106322 -3.699910 0.000165 0.001811 200.729151 14.573925 -290.095018 -2.849916 0.000178 0.000070 197.932694 10.344816 -300.314566 -2.772176 -0.000014 -0.000024 -0.000001 -0.000002 -0.000001 -9.532452 0.000087 0.000561 205.536662 10.596914 -315.244349 -3.699949 0.000141 0.004308 204.742912 10.462258 -314.860219 -2.949935 0.000135 -0.001473 201.964828 9.270931 -314.663209 -2.946618 0.000002 -0.000150 0.000002 -0.000000 0.000000 -9.103559 -0.042955 -1.864549 206.078077 9.978363 -318.771731 -3.379245 0.000105 -0.000457 207.848708 9.565865 -322.667507 -2.889685 0.000134 0.000965 205.239139 7.210285 -328.446831 -2.638823 -0.000001 0.000946 0.000000 -0.000000 -0.000001 -8.076622 -0.486590 -3.805700 204.007164 10.836524 -312.170900 -3.599990 0.000023 -0.003163 207.464838 6.591984 -334.398111 -2.099984 0.000044 -0.005181 206.235745 2.574821 -349.757786 -2.115778 -0.000044 -0.003680 0.000002 0.000001 -0.000002 4.570446 11.014691 -2.160851 -0.000018 0.000010 -0.000021 10.592493 -0.524534 -2.232379 51.676163 -61.328917 32.039123 27.841761 -0.000060 -0.000110 224.356947 -74.777840 236.151332 28.328840 -0.000015 0.000023 0.000016 -0.000090 -0.000000 2.466088 -1.576203 2.681866 43.468352 112.075447 -92.286921 3.217566 -1.872028 1.916540 139.990000 35.787767 -179.655490 2.655683 -1.528506 1.514531 -54.273154 195.750599 -281.978759 2.020898 -1.154083 1.115149 0.000002 0.000000 0.000003 9.109431 -0.517747 2.259850 329.946795 -170.001728 216.051232 3.700124 0.000259 -0.000359 329.133320 -168.147154 221.275958 2.850118 0.000322 0.000319 325.703390 -170.864204 209.028610 2.774878 -0.000015 -0.000045 0.000003 0.000000 0.000001 9.533496 0.000332 -0.000007 145.977740 -8.258351 26.526404 3.700080 0.000315 -0.000274 142.813095 -7.920849 23.250203 2.950081 0.000272 -0.000114 142.180305 -8.212156 23.679345 2.952873 0.000000 0.000056 -0.000002 0.000000 -0.000000 9.104601 -0.042688 -1.865120 146.733678 -5.824738 19.334920 3.150023 0.000372 -0.000017 143.041223 -2.089290 6.251047 2.950016 0.000359 -0.000027 143.082764 -3.064729 9.168948 2.644317 0.000030 0.000047 0.000001 -0.000001 0.000000 8.077851 -0.486543 -3.806291 151.754946 -4.050191 18.132643 3.599915 0.000435 0.014679 -31.280292 177.275579 171.669346 2.099960 0.000427 0.007644 148.410927 3.954572 -12.676221 2.125502 -0.000015 0.007519 0.000004 0.000002 0.000000 -8.207786 -6.751667 -1.599560 -0.077001 -0.000003 0.000080 -0.000002 -44.370110 0.345938 0.153719 -0.000000 -0.000000 0.000000 -44.423679 -3.043532 -0.076700 0.000000 -0.000002 -0.000006 -8.728667 10.710559 -0.000009 -0.000000 -0.000000 -0.000001 -0.000679 9.278123 0.000000 -0.000000 -0.000000 8.207792 -6.751710 -1.599556 -0.074518 -0.000003 0.000081 -0.000002 -44.370014 0.346960 0.148822 0.000002 0.000000 -0.000001 -44.423664 -3.044403 -0.074314 0.000000 -0.000002 -0.000004 -8.728671 10.710558 0.000007 -0.000000 -0.000000 0.000000 -0.000680 9.278137 -0.000000 0.000000 -0.000001 
0.000006 104.270477 1.554256 0.000010 0.000003 -0.000113 -0.000005 10.181587 0.131522 0.000001 -0.000003 0.000084 -0.000000 9.893967 -1.470711 0.000001 0.000000 -0.000000 -0.000000 9.220802 -1.370642 0.000000 -0.000000 -0.000000 0.000001 16.740433 -2.049030 0.000000 -0.000000 -0.000000 0.000000 9.617859 1.685014 0.000000 0.000000 0.000000 0.000002 22.037384 7.501101 0.000000 -0.000000 0.000000 -4.569968 11.014880 -2.160881 0.000008 0.000001 -0.000038 -10.592806 -0.524839 -2.231764 68.558010 60.525209 -43.376264 -27.841469 -0.000006 0.000600 213.854261 74.632657 -223.530481 -28.328825 0.000007 0.000024 -0.000322 -0.000044 0.000006 -2.464812 -1.574159 2.682052 117.153945 -181.605987 163.383002 -3.215063 -1.873056 1.924531 92.240762 199.709390 149.691437 -2.654660 -1.528291 1.512948 66.819276 210.496841 -229.673690 -2.018831 -1.152000 1.108049 -0.000002 0.000001 0.000004 -9.108194 -0.517714 2.260441 203.374688 15.010210 -294.974943 -3.699906 0.000162 0.001814 200.744300 15.773904 -285.767328 -2.849926 0.000185 0.000078 198.808393 11.718182 -296.437532 -2.772172 -0.000029 -0.000011 -0.000000 0.000004 0.000004 -9.532461 0.000067 0.000566 206.299935 10.849160 -315.523813 -3.699959 0.000129 0.004310 205.526239 10.883542 -314.545784 -2.949944 0.000135 -0.001458 204.351515 9.817313 -316.604868 -2.946615 0.000016 -0.000176 -0.000000 -0.000001 -0.000001 -9.103574 -0.042936 -1.864538 207.091486 10.257500 -319.213235 -3.379234 0.000097 -0.000469 207.873174 9.099880 -324.403632 -2.889668 0.000118 0.000953 206.327953 6.956705 -330.745763 -2.638810 -0.000017 0.000942 0.000000 0.000001 0.000000 -8.076630 -0.486596 -3.805696 205.505052 11.015344 -314.097369 -3.599984 0.000022 -0.003170 208.174071 5.767864 -338.250229 -2.099990 0.000013 -0.005179 207.684319 1.935640 -352.915109 -2.115793 -0.000053 -0.003683 -0.000004 0.000004 -0.000006 4.570446 11.014691 -2.160851 -0.000018 0.000010 -0.000021 10.592495 -0.524551 -2.232385 52.656353 -61.349278 32.716135 27.841747 -0.000051 -0.000112 225.738749 -75.643423 237.033983 28.328840 -0.000015 0.000019 0.000019 -0.000090 -0.000000 2.466101 -1.576190 2.681864 64.450737 112.143380 -111.773915 3.217574 -1.872039 1.916529 145.375413 44.716214 -187.057872 2.655654 -1.528641 1.514568 -55.824325 174.667321 -312.839439 2.020887 -1.154066 1.115140 0.000004 -0.000002 0.000001 9.109427 -0.517713 2.259864 337.974918 -172.727862 216.105683 3.700111 0.000263 -0.000347 335.680985 -171.013402 220.154578 2.850107 0.000327 0.000315 332.569178 -172.572010 209.782963 2.774879 -0.000045 -0.000022 0.000001 0.000001 0.000000 9.533481 0.000383 0.000013 155.346601 -5.392964 24.286939 3.700084 0.000312 -0.000257 152.112534 -6.511945 25.799737 2.950100 0.000299 -0.000082 150.589060 -7.326554 27.430002 2.952872 -0.000016 0.000061 0.000001 0.000001 0.000000 9.104581 -0.042630 -1.865088 156.164516 -3.099942 14.619943 3.150052 0.000377 0.000027 152.235177 -3.018619 12.177406 2.950026 0.000311 0.000007 150.890026 -4.745600 18.141527 2.644326 0.000045 0.000060 -0.000002 -0.000001 -0.000000 8.077846 -0.486512 -3.806267 160.102503 -2.588376 17.724182 3.599940 0.000453 0.014691 -24.098774 179.147748 177.946850 2.099966 0.000428 0.007661 153.536355 1.899703 -6.454438 2.125498 -0.000031 0.007507 0.000000 -0.000002 -0.000001 -8.207786 -6.751667 -1.599560 -0.077001 -0.000003 0.000080 -0.000002 -44.370110 0.345938 0.153719 -0.000000 -0.000000 0.000000 -44.423679 -3.043532 -0.076700 0.000000 -0.000002 -0.000006 -8.728667 10.710559 -0.000009 -0.000000 -0.000000 -0.000001 -0.000679 9.278123 0.000000 -0.000000 -0.000000 8.207792 -6.751710 -1.599556 -0.074518 -0.000003 0.000081 -0.000002 -44.370014 0.346960 0.148822 0.000002 0.000000 -0.000001 -44.423664 -3.044403 -0.074314 0.000000 -0.000002 -0.000004 -8.728671 10.710558 0.000007 -0.000000 -0.000000 0.000000 -0.000680 9.278137 -0.000000 0.000000 -0.000001 
0.000006 104.270477 1.554256 0.000010 0.000003 -0.000113 -0.000005 10.181587 0.131522 0.000001 -0.000003 0.000084 -0.000000 9.893967 -1.470711 0.000001 0.000000 -0.000000 -0.000000 9.220802 -1.370642 0.000000 -0.000000 -0.000000 0.000001 16.740433 -2.049030 0.000000 -0.000000 -0.000000 0.000000 9.617859 1.685014 0.000000 0.000000 0.000000 0.000002 22.037384 7.501101 0.000000 -0.000000 0.000000 -4.569968 11.014880 -2.160881 0.000008 0.000001 -0.000038 -10.592801 -0.524840 -2.231760 68.810877 62.267679 -44.948024 -27.841476 -0.000001 0.000588 216.101147 74.025638 -226.755423 -28.328823 0.000006 0.000030 -0.000321 -0.000044 0.000007 -2.464812 -1.574155 2.682019 121.897170 -179.608908 164.393706 -3.215081 -1.873032 1.924476 99.433621 198.898182 153.158413 -2.654671 -1.528293 1.512956 71.983985 210.555963 -226.394543 -2.018822 -1.152012 1.108057 -0.000006 0.000000 -0.000000 -9.108258 -0.517770 2.260427 213.482234 15.132159 -312.296985 -3.699951 0.000122 0.001809 209.334506 16.789264 -301.187437 -2.849971 0.000150 0.000066 206.481304 12.995581 -308.342115 -2.772177 0.000001 -0.000016 -0.000001 0.000002 -0.000001 -9.532509 -0.000001 0.000547 215.490938 10.285051 -328.359350 -3.699991 0.000063 0.004292 213.487439 11.106467 -324.334237 -2.949969 0.000086 -0.001481 211.204025 10.589165 -323.293453 -2.946633 0.000000 -0.000141 -0.000003 -0.000000 0.000000 -9.103602 -0.043009 -1.864560 215.614483 9.449585 -331.214068 -3.379262 -0.000009 -0.000484 216.548702 7.780490 -336.694175 -2.889725 0.000060 0.000966 215.305990 6.745628 -338.918030 -2.638809 -0.000000 0.000946 0.000000 0.000000 0.000000 -8.076657 -0.486667 -3.805715 212.577057 9.877614 -327.309714 -3.599978 -0.000013 -0.003189 215.243057 4.103198 -347.990488 -2.099978 -0.000034 -0.005183 214.150787 1.394253 -356.092213 -2.115785 -0.000026 -0.003690 0.000004 -0.000002 -0.000002 4.570446 11.014691 -2.160851 -0.000018 0.000010 -0.000021 10.592506 -0.524546 -2.232386 56.709623 -62.634904 36.355840 27.841745 -0.000046 -0.000113 227.837748 -75.569835 239.548722 28.328829 -0.000013 0.000028 0.000020 -0.000088 0.000001 2.466148 -1.576163 2.681882 95.927029 130.029262 -143.687741 3.217766 -1.872059 1.916541 216.153549 57.027005 -270.203841 2.655799 -1.528819 1.514620 -30.406472 141.152703 -373.357483 2.020891 -1.154068 1.115151 0.000002 0.000004 0.000002 9.109139 -0.518027 2.259939 360.707590 -173.004238 371.390908 3.700052 0.000003 -0.000264 354.346580 -170.661497 297.893045 2.850142 0.000298 0.000373 346.213219 -174.523641 223.156637 2.774862 -0.000040 -0.000030 0.000002 0.000000 0.000001 9.533183 0.000391 0.000129 187.064743 -4.300229 -62.583473 3.699713 0.000094 -0.000163 182.346366 -5.662716 -135.037894 2.950090 0.000013 -0.000007 176.962920 -4.645353 113.734152 2.952865 0.000001 0.000060 -0.000001 0.000002 0.000000 9.104505 -0.042617 -1.864962 194.487164 -0.729341 -5.745339 3.150080 0.000308 0.000149 195.364966 4.250925 30.752862 2.950039 0.000274 0.000138 193.233660 2.948249 25.001124 2.644316 0.000061 0.000062 -0.000001 0.000002 0.000000 8.077823 -0.486511 -3.806109 205.473564 3.017276 11.024994 3.600060 0.000206 0.014856 28.779764 164.476966 233.984167 2.100103 0.000125 0.007833 203.719763 17.487723 70.257552 2.125495 -0.000016 0.007511 0.000002 -0.000000 0.000000 -8.207786 -6.751667 -1.599560 -0.077001 -0.000003 0.000080 -0.000002 -44.370110 0.345938 0.153719 -0.000000 -0.000000 0.000000 -44.423679 -3.043532 -0.076700 0.000000 -0.000002 -0.000006 -8.728667 10.710559 -0.000009 -0.000000 -0.000000 -0.000001 -0.000679 9.278123 0.000000 -0.000000 -0.000000 8.207792 -6.751710 -1.599556 -0.074518 -0.000003 0.000081 -0.000002 -44.370014 0.346960 0.148822 0.000002 0.000000 -0.000001 -44.423664 -3.044403 -0.074314 0.000000 -0.000002 -0.000004 -8.728671 10.710558 0.000007 -0.000000 -0.000000 0.000000 -0.000680 9.278137 -0.000000 0.000000 -0.000001 
